<?xml version="1.0" encoding="UTF-8"?>
<svg version="1.1" xmlns="http://www.w3.org/2000/svg" width="512" height="512">
<path d="M0 0 C3.87942305 1.82206065 7.37529084 4.12665693 10.9375 6.5 C12.50153564 7.51018188 12.50153564 7.51018188 14.09716797 8.54077148 C16.29818172 9.96374711 18.4943938 11.39417407 20.68603516 12.83154297 C24.93398571 15.61114344 29.21385223 18.33900301 33.49511719 21.06689453 C36.6346664 23.06866328 39.76914149 25.07815769 42.90234375 27.08984375 C48.65550411 30.7817357 54.41910412 34.45696854 60.1875 38.125 C61.08355957 38.69484619 61.97961914 39.26469238 62.90283203 39.85180664 C64.70127695 40.99537067 66.49977935 42.13884431 68.29833984 43.28222656 C72.86646057 46.18673564 77.43315077 49.09349229 82 52 C83.83332663 53.1666772 85.66665996 54.33334387 87.5 55.5 C98.5 62.5 109.5 69.5 120.5 76.5 C121.40766113 77.07758057 122.31532227 77.65516113 123.25048828 78.25024414 C125.08227445 79.41597061 126.9139803 80.58182331 128.74560547 81.74780273 C133.35195718 84.67989914 137.95972038 87.60973151 142.5703125 90.53515625 C148.05244112 94.01474441 153.52821814 97.50416638 159 101 C159.95438965 101.6089209 160.9087793 102.2178418 161.89208984 102.84521484 C164.70243681 104.64135816 167.50814053 106.44452619 170.3125 108.25 C171.17311035 108.79922119 172.0337207 109.34844238 172.92041016 109.91430664 C173.70593262 110.4221167 174.49145508 110.92992676 175.30078125 111.453125 C175.99341064 111.89817383 176.68604004 112.34322266 177.3996582 112.80175781 C179 114 179 114 180 116 C180.1358023 118.94269525 180.2127575 121.86053126 180.23828125 124.8046875 C180.246353 125.68021271 180.25442474 126.55573792 180.26274109 127.45779419 C180.27658221 129.31217467 180.28730424 131.16658063 180.29516602 133.02099609 C180.31239029 135.85693566 180.35627643 138.69171286 180.40039062 141.52734375 C180.41051655 143.32811642 180.41903297 145.12889901 180.42578125 146.9296875 C180.44328934 147.77771942 180.46079742 148.62575134 180.47883606 149.4994812 C180.45723533 155.36246216 180.45723533 155.36246216 178.19091797 158.52246094 C175.5995384 160.27006837 173.53829826 160.76429587 170.41259766 160.60058594 C164.93518339 159.23705233 160.33462511 155.70994798 155.6875 152.625 C154.60404297 151.92632812 153.52058594 151.22765625 152.40429688 150.5078125 C148.58139961 148.03682856 144.78740376 145.52493584 141 143 C140.67 217.25 140.34 291.5 140 368 C144.95 368 149.9 368 155 368 C162.36796688 370.45598896 167.65263534 375.33656888 171.171875 382.328125 C173.17844404 388.80214965 173.2761327 397.17277577 170.5 403.4375 C166.91719873 409.36633484 161.5227034 413.77702416 155 416 C152.34918755 416.25299966 152.34918755 416.25299966 149.4407835 416.25726891 C147.77167133 416.26694224 147.77167133 416.26694224 146.06883973 416.276811 C144.24288914 416.2721652 144.24288914 416.2721652 142.38005066 416.26742554 C141.08285341 416.27195665 139.78565616 416.27648776 138.44914991 416.28115618 C134.8501655 416.29339198 131.251274 416.29312504 127.65227354 416.29076743 C123.7700853 416.29035941 119.88792691 416.30139701 116.00575256 416.31088257 C108.40036111 416.32749677 100.79500065 416.33299231 93.18959256 416.33410732 C87.00747182 416.33505761 80.8253613 416.33916693 74.64324379 416.34550858 C57.11597061 416.36312222 39.58872193 416.37234727 22.06143983 416.37084763 C21.11650404 416.37076772 20.17156825 416.3706878 19.19799805 416.37060547 C18.25190854 416.37052371 17.30581903 416.37044195 16.33106015 416.37035771 C0.99813958 416.3695448 -14.33468276 416.38868341 -29.66757492 416.4168822 C-45.41111162 416.44560775 -61.1546004 416.45942267 -76.89816397 416.45769465 C-85.73704564 416.45703063 -94.57582433 416.4625282 -103.41468239 416.48405075 C-110.94035017 416.50225823 -118.46586831 416.50661349 -125.99154858 416.4930319 C-129.83055934 416.48649999 -133.66928296 416.48639284 -137.50826645 416.5037384 C-141.67209505 416.52235804 -145.8352583 416.50992054 -149.99909973 416.49447632 C-151.20970796 416.50476344 -152.42031619 416.51505057 -153.66760951 416.52564943 C-161.62299602 416.46035164 -167.0907418 415.42570884 -173.2421875 410.03515625 C-173.78101563 409.38417969 -174.31984375 408.73320312 -174.875 408.0625 C-175.42929688 407.41410156 -175.98359375 406.76570313 -176.5546875 406.09765625 C-181.03412097 399.59642443 -180.67463728 392.62859083 -180 385 C-178.31914417 378.34040667 -173.53621678 373.81452553 -168 370 C-163 368 -163 368 -148 368 C-148.33 293.75 -148.66 219.5 -149 143 C-156.26 147.62 -163.52 152.24 -171 157 C-176.62621819 160.37573091 -177.81685504 160.68701611 -184 160 C-186.21069336 158.53295898 -186.21069336 158.53295898 -188 156 C-188.60012221 153.01252283 -188.58438296 150.07468026 -188.56640625 147.03515625 C-188.57260483 146.16483261 -188.57880341 145.29450897 -188.58518982 144.39781189 C-188.59228457 142.5595715 -188.58911994 140.72126682 -188.57641602 138.88305664 C-188.5625623 136.07512682 -188.5966082 133.27053835 -188.63476562 130.46289062 C-188.63571699 128.67447835 -188.63385708 126.88606192 -188.62890625 125.09765625 C-188.64216446 124.26105972 -188.65542267 123.4244632 -188.66908264 122.56251526 C-188.60209897 118.35346991 -188.42493366 116.54516989 -185.7644043 113.13183594 C-183.27240043 111.21006805 -180.82598605 109.43135553 -178.140625 107.79296875 C-177.2026709 107.21474365 -176.2647168 106.63651855 -175.29833984 106.04077148 C-174.2923877 105.42919189 -173.28643555 104.8176123 -172.25 104.1875 C-170.07995402 102.85021537 -167.91070797 101.51163196 -165.7421875 100.171875 C-164.62682617 99.48416016 -163.51146484 98.79644531 -162.36230469 98.08789062 C-156.99911203 94.75750843 -151.68631007 91.34980809 -146.375 87.9375 C-144.28260338 86.59497213 -142.19015579 85.25252369 -140.09765625 83.91015625 C-139.07945801 83.2567627 -138.06125977 82.60336914 -137.01220703 81.93017578 C-132.28556342 78.9014155 -127.54965632 75.88728258 -122.8125 72.875 C-121.91644043 72.30515381 -121.02038086 71.73530762 -120.09716797 71.14819336 C-118.29872305 70.00462933 -116.50022065 68.86115569 -114.70166016 67.71777344 C-110.13353943 64.81326436 -105.56684923 61.90650771 -101 59 C-99.16667337 57.8333228 -97.33334004 56.66665613 -95.5 55.5 C-94.5925 54.9225 -93.685 54.345 -92.75 53.75 C-82.66666667 47.33333333 -72.58333333 40.91666667 -62.5 34.5 C-61.5920166 33.92217773 -60.6840332 33.34435547 -59.74853516 32.74902344 C-57.92013828 31.58552768 -56.09168798 30.42211585 -54.26318359 29.25878906 C-48.65415194 25.69004142 -43.04699384 22.11837802 -37.44189453 18.54345703 C-35.58249659 17.35961778 -33.72152276 16.17824962 -31.85888672 14.99951172 C-27.6577571 12.34069382 -23.47598832 9.66333878 -19.34375 6.8984375 C-18.62622559 6.42696289 -17.90870117 5.95548828 -17.16943359 5.46972656 C-15.8604945 4.60877164 -14.5603131 3.7342575 -13.27197266 2.84277344 C-8.93729648 0.02337432 -5.04972002 -1.24398813 0 0 Z M-10.4296875 21.5703125 C-11.2959375 22.12976563 -12.1621875 22.68921875 -13.0546875 23.265625 C-13.98539063 23.87921875 -14.91609375 24.4928125 -15.875 25.125 C-17.87224177 26.41950856 -19.86964197 27.71377272 -21.8671875 29.0078125 C-22.88780273 29.67329102 -23.90841797 30.33876953 -24.95996094 31.02441406 C-29.61777167 34.05131773 -34.30918388 37.02461474 -39 40 C-40.83352128 41.16637127 -42.66685402 42.33303897 -44.5 43.5 C-121.5 92.5 -121.5 92.5 -124.25244141 94.25146484 C-126.07774405 95.41308005 -127.90294014 96.57486273 -129.72802734 97.73681641 C-135.4025344 101.3491567 -141.08070647 104.95562832 -146.76318359 108.55541992 C-148.64717536 109.75328638 -150.52781419 110.95644533 -152.40478516 112.1652832 C-156.2375464 114.63330143 -160.05328975 117.06900496 -164.046875 119.26953125 C-168.34115631 121.73484434 -168.34115631 121.73484434 -172 125 C-172.93858079 128.86262095 -172.77004589 132.12125031 -172 136 C-168.55630419 134.71520302 -165.55986047 133.22425047 -162.47265625 131.234375 C-161.17811523 130.40486328 -161.17811523 130.40486328 -159.85742188 129.55859375 C-158.93509766 128.96175781 -158.01277344 128.36492187 -157.0625 127.75 C-155.07429033 126.47384681 -153.08600704 125.1978083 -151.09765625 123.921875 C-150.0833252 123.26896484 -149.06899414 122.61605469 -148.02392578 121.94335938 C-143.35969902 118.94584242 -138.67959437 115.973444 -134 113 C-132.16657941 111.83347046 -130.33324634 110.66680336 -128.5 109.5 C-102.83333333 93.16666667 -77.16666667 76.83333333 -51.5 60.5 C-50.59113037 59.92161377 -49.68226074 59.34322754 -48.74584961 58.74731445 C-46.92640461 57.58951523 -45.10690656 56.43179934 -43.28735352 55.27416992 C-38.49107349 52.22253945 -33.69592857 49.16914398 -28.90234375 46.11328125 C-27.40477539 45.15905273 -27.40477539 45.15905273 -25.87695312 44.18554688 C-23.96515438 42.96733093 -22.05367841 41.74860824 -20.14257812 40.52929688 C-19.27955078 39.97951172 -18.41652344 39.42972656 -17.52734375 38.86328125 C-16.77187256 38.38157471 -16.01640137 37.89986816 -15.23803711 37.40356445 C-14.49948486 36.94038818 -13.76093262 36.47721191 -13 36 C-12.15646973 35.45819092 -11.31293945 34.91638184 -10.44384766 34.3581543 C-6.88138325 32.37833517 -3.90207998 32.13788342 0 33 C3.88399885 34.81126227 7.37588102 37.12705015 10.9375 39.5 C12.50153564 40.51018188 12.50153564 40.51018188 14.09716797 41.54077148 C16.29818172 42.96374711 18.4943938 44.39417407 20.68603516 45.83154297 C24.93398571 48.61114344 29.21385223 51.33900301 33.49511719 54.06689453 C36.6346664 56.06866328 39.76914149 58.07815769 42.90234375 60.08984375 C48.65550411 63.7817357 54.41910412 67.45696854 60.1875 71.125 C61.08355957 71.69484619 61.97961914 72.26469238 62.90283203 72.85180664 C64.70127695 73.99537067 66.49977935 75.13884431 68.29833984 76.28222656 C72.86646057 79.18673564 77.43315077 82.09349229 82 85 C83.83332663 86.1666772 85.66665996 87.33334387 87.5 88.5 C120.5 109.5 120.5 109.5 123.25415039 111.25292969 C125.07330017 112.4103793 126.89279463 113.56728738 128.71264648 114.72363281 C133.51606837 117.77679034 138.31177937 120.84127562 143.09765625 123.921875 C144.09603516 124.56253906 145.09441406 125.20320313 146.12304688 125.86328125 C148.03672727 127.09159704 149.94830165 128.32320219 151.85742188 129.55859375 C153.15196289 130.38810547 153.15196289 130.38810547 154.47265625 131.234375 C155.22812744 131.72131836 155.98359863 132.20826172 156.76196289 132.70996094 C159.10844547 134.06250964 161.4652565 135.054321 164 136 C165.01925491 132.02868086 165.18790884 128.95130694 164 125 C160.17453935 121.3702866 155.84591823 118.9041222 151.27539062 116.31103516 C148.21225306 114.54611576 145.24470879 112.64582939 142.26757812 110.74047852 C139.878983 109.21256849 137.48001865 107.70221937 135.078125 106.1953125 C129.76840284 102.8586583 124.47666939 99.49411242 119.1875 96.125 C118.2689624 95.54008789 117.3504248 94.95517578 116.40405273 94.35253906 C114.53541868 93.16253395 112.66684791 91.97242948 110.79833984 90.78222656 C106.19976238 87.85345187 101.59981973 84.92682309 97 82 C95.16665996 80.83334387 93.33332663 79.6666772 91.5 78.5 C90.5925 77.9225 89.685 77.345 88.75 76.75 C36.5 43.5 36.5 43.5 33.74560547 41.74658203 C31.92767189 40.59012668 30.10899659 39.43483642 28.28955078 38.28076172 C23.46360795 35.21742756 18.65537617 32.1298869 13.8671875 29.0078125 C12.86429688 28.358125 11.86140625 27.7084375 10.828125 27.0390625 C8.89885546 25.78861002 6.97414636 24.53108541 5.0546875 23.265625 C4.1884375 22.70617187 3.3221875 22.14671875 2.4296875 21.5703125 C1.28862549 20.82418701 1.28862549 20.82418701 0.12451172 20.06298828 C-4.13085273 17.93383903 -6.76529921 19.17421705 -10.4296875 21.5703125 Z M-10.4296875 53.5703125 C-11.2959375 54.12976563 -12.1621875 54.68921875 -13.0546875 55.265625 C-13.98539062 55.87921875 -14.91609375 56.4928125 -15.875 57.125 C-17.87224177 58.41950856 -19.86964197 59.71377272 -21.8671875 61.0078125 C-22.88780273 61.67329102 -23.90841797 62.33876953 -24.95996094 63.02441406 C-29.61777167 66.05131773 -34.30918388 69.02461474 -39 72 C-40.83352128 73.16637127 -42.66685402 74.33303897 -44.5 75.5 C-55.5 82.5 -66.5 89.5 -77.5 96.5 C-78.4079834 97.07782227 -79.3159668 97.65564453 -80.25146484 98.25097656 C-82.07986172 99.41447232 -83.90831202 100.57788415 -85.73681641 101.74121094 C-90.39612505 104.7056971 -95.05441932 107.67175729 -99.7109375 110.640625 C-100.6596875 111.24519531 -101.6084375 111.84976563 -102.5859375 112.47265625 C-104.35452545 113.59969759 -106.12279366 114.72724098 -107.890625 115.85546875 C-108.71820313 116.38269531 -109.54578125 116.90992188 -110.3984375 117.453125 C-111.20453964 117.99312197 -112.01064178 118.53311893 -112.84117126 119.08947945 C-115.25486751 120.5493295 -117.41466376 121.63934419 -119.98316956 122.72910881 C-125.1833056 125.12155165 -130.62924298 127.67262324 -132.91555786 133.22242594 C-134.39644329 140.02265318 -134.00334497 146.97751539 -133.81640625 153.89111328 C-133.81188944 156.2275308 -133.81443354 158.56397102 -133.82348633 160.90037537 C-133.82806853 167.22596429 -133.73416757 173.5466769 -133.62230301 179.87113428 C-133.53228133 185.81584579 -133.51631733 191.76037616 -133.49987304 197.70567726 C-133.46492159 209.47527405 -133.35863285 221.24308873 -133.20703125 233.01171875 C-133.05998855 244.43838633 -132.94682432 255.86456854 -132.87890625 267.29199219 C-132.87470267 267.9972829 -132.8704991 268.70257362 -132.86616814 269.42923678 C-132.84528635 272.96775229 -132.82506731 276.50627121 -132.80517769 280.04479241 C-132.63951848 309.3645364 -132.34467905 338.6817322 -132 368 C-108.24 368 -84.48 368 -60 368 C-59.96261719 357.92855469 -59.92523438 347.85710937 -59.88671875 337.48046875 C-59.85645593 331.11391833 -59.82544197 324.74738639 -59.79101562 318.38085938 C-59.73646937 308.26751348 -59.68505944 298.15421895 -59.65356445 288.04077148 C-59.63061539 280.67606061 -59.59725226 273.31148381 -59.55129844 265.94687921 C-59.52732426 262.04610557 -59.50862309 258.14546505 -59.50238609 254.24461937 C-59.49635405 250.57476569 -59.47642319 246.90525283 -59.44572449 243.23552513 C-59.4327054 241.2430047 -59.43451933 239.25040476 -59.4367218 237.25784302 C-59.41791458 235.48468468 -59.41791458 235.48468468 -59.39872742 233.67570496 C-59.39411845 232.64606219 -59.38950949 231.61641943 -59.38476086 230.55557537 C-59 228 -59 228 -57.74313068 226.16907787 C-55.57121832 224.71242593 -54.31706934 224.62292593 -51.71118164 224.61904907 C-50.83632111 224.6105896 -49.96146057 224.60213013 -49.06008911 224.59341431 C-47.62462234 224.60252335 -47.62462234 224.60252335 -46.16015625 224.61181641 C-44.64517044 224.60393097 -44.64517044 224.60393097 -43.09957886 224.59588623 C-39.7537296 224.58265877 -36.40835428 224.59143424 -33.0625 224.6015625 C-30.74226795 224.59954256 -28.42203651 224.59663179 -26.10180664 224.59286499 C-21.23610395 224.5884379 -16.37056634 224.59488519 -11.50488281 224.60888672 C-5.26002361 224.62597864 0.98444882 224.61613954 7.22929382 224.59816933 C12.02131071 224.58734197 16.81323551 224.59077304 21.60525513 224.5985527 C23.90821376 224.60055761 26.21118068 224.59808532 28.51412964 224.59111404 C31.72969795 224.58351696 34.94463509 224.59507975 38.16015625 224.61181641 C39.11713409 224.60574371 40.07411194 224.59967102 41.06008911 224.59341431 C41.93494965 224.60187378 42.80981018 224.61033325 43.71118164 224.61904907 C44.47145157 224.62018015 45.2317215 224.62131123 46.01502991 224.62247658 C48.64532648 225.12273528 49.48571342 225.79408983 51 228 C51.38476086 230.55557537 51.38476086 230.55557537 51.39872742 233.67570496 C51.41126556 234.85781052 51.42380371 236.03991608 51.4367218 237.25784302 C51.43528671 238.55616058 51.43385162 239.85447815 51.43237305 241.19213867 C51.44138826 242.57188294 51.45171489 243.95161916 51.46325684 245.3313446 C51.49088155 249.07900235 51.5001187 252.82650836 51.50611091 256.57425475 C51.51548042 260.49010107 51.54168259 264.40583342 51.56611633 268.3216095 C51.60982433 275.73759059 51.63834482 283.15354962 51.66143972 290.56962043 C51.69352082 300.59030726 51.74900016 310.61086257 51.80318546 320.6314497 C51.88794719 336.42092744 51.94139258 352.21035337 52 368 C75.76 368 99.52 368 124 368 C124.52987284 338.06320355 124.9726879 308.12900514 125.22556791 278.18878188 C125.25558209 274.64806313 125.28664609 271.10735431 125.31835938 267.56665039 C125.32780255 266.50938882 125.32780255 266.50938882 125.3374365 265.43076844 C125.44165649 254.04209425 125.6307507 242.65635032 125.85166711 231.26941025 C126.07672961 219.57050276 126.20953572 207.87312094 126.25812387 196.1721378 C126.28934782 189.60430131 126.36235565 183.04309003 126.53752136 176.47738457 C128.97813356 149.72861414 128.97813356 149.72861414 120.24369407 125.8663438 C115.13717488 121.33305234 109.2412336 118.87383418 102.78199863 116.909235 C98.98906281 115.66959744 96.2069355 113.82409996 92.9609375 111.52734375 C92.02354736 110.92583496 91.08615723 110.32432617 90.12036133 109.70458984 C89.21439209 109.1214502 88.30842285 108.53831055 87.375 107.9375 C85.28270495 106.59481384 83.19025395 105.25237068 81.09765625 103.91015625 C80.07945801 103.2567627 79.06125977 102.60336914 78.01220703 101.93017578 C73.28556342 98.9014155 68.54965632 95.88728258 63.8125 92.875 C62.91644043 92.30515381 62.02038086 91.73530762 61.09716797 91.14819336 C59.29872305 90.00462933 57.50022065 88.86115569 55.70166016 87.71777344 C51.13353943 84.81326436 46.56684908 81.90650794 42 79 C40.18099629 77.84243738 38.36198586 76.68488531 36.54296875 75.52734375 C29.06640625 70.76953125 21.58984375 66.01171875 14.11328125 61.25390625 C12.86925537 60.46717529 12.86925537 60.46717529 11.60009766 59.66455078 C9.73888302 58.47302389 7.8909845 57.2605951 6.05224609 56.03466797 C4.59359131 55.07197998 4.59359131 55.07197998 3.10546875 54.08984375 C2.2239917 53.49937256 1.34251465 52.90890137 0.43432617 52.30053711 C-3.95097409 49.95769341 -6.56760099 51.04494477 -10.4296875 53.5703125 Z M-44 240 C-44 282.24 -44 324.48 -44 368 C-17.6 368 8.8 368 36 368 C36 325.76 36 283.52 36 240 C9.6 240 -16.8 240 -44 240 Z M-162 387 C-163.42041821 389.84083641 -163.31452272 391.85477278 -163 395 C-160.76793569 397.84780619 -159.45007001 398.84997666 -156 400 C-154.30199373 400.09363118 -152.60051997 400.12912138 -150.89993572 400.13142776 C-149.30809791 400.13718948 -149.30809791 400.13718948 -147.68410176 400.1430676 C-146.51408472 400.14220112 -145.34406768 400.14133463 -144.13859558 400.14044189 C-142.89886578 400.14341302 -141.65913599 400.14638414 -140.38183862 400.1494453 C-136.93410663 400.15663411 -133.48642446 400.15930527 -130.03868854 400.16004276 C-126.32283968 400.16189203 -122.60700166 400.16943872 -118.89115906 400.17617798 C-110.76309538 400.18976688 -102.63503664 400.19578684 -94.50696349 400.20018864 C-89.4331977 400.20295003 -84.35943382 400.20718718 -79.28566933 400.21169281 C-65.241929 400.22388603 -51.1981902 400.23418535 -37.15444469 400.2375679 C-35.80588607 400.23789725 -35.80588607 400.23789725 -34.43008383 400.23823325 C-33.5288767 400.23845153 -32.62766956 400.23866981 -31.69915313 400.2388947 C-29.87292174 400.23933817 -28.04669036 400.23978473 -26.22045898 400.24023438 C-25.31458246 400.2404558 -24.40870594 400.24067723 -23.47537861 400.24090537 C-8.79411822 400.24485411 5.88709256 400.26231019 20.56833378 400.2855939 C35.63604506 400.30929794 50.70373143 400.32176931 65.77146167 400.32293582 C74.23358689 400.3238531 82.69564746 400.32961865 91.1577549 400.34775543 C98.36290966 400.36314363 105.56797979 400.36828447 112.77314786 400.36001733 C116.44983459 400.3561063 120.12635083 400.35706233 123.80301666 400.37107468 C127.78796659 400.38612317 131.77267563 400.37796047 135.75764465 400.36749268 C137.50263196 400.37957728 137.50263196 400.37957728 139.28287154 400.39190602 C144.88573464 400.35736877 149.23273418 400.32439625 154 397 C155.42041821 394.15916359 155.31452272 392.14522722 155 389 C152.76793569 386.15219381 151.45007001 385.15002334 148 384 C146.30199373 383.90636882 144.60051997 383.87087862 142.89993572 383.86857224 C141.30809791 383.86281052 141.30809791 383.86281052 139.68410176 383.8569324 C138.51408472 383.85779888 137.34406768 383.85866537 136.13859558 383.85955811 C134.89886578 383.85658698 133.65913599 383.85361586 132.38183862 383.8505547 C128.93410663 383.84336589 125.48642446 383.84069473 122.03868854 383.83995724 C118.32283968 383.83810797 114.60700166 383.83056128 110.89115906 383.82382202 C102.76309538 383.81023312 94.63503664 383.80421316 86.50696349 383.79981136 C81.4331977 383.79704997 76.35943382 383.79281282 71.28566933 383.78830719 C57.241929 383.77611397 43.1981902 383.76581465 29.15444469 383.7624321 C28.25540561 383.76221253 27.35636652 383.76199297 26.43008383 383.76176675 C25.5288767 383.76154847 24.62766956 383.76133019 23.69915313 383.7611053 C21.87292174 383.76066183 20.04669036 383.76021527 18.22045898 383.75976562 C17.31458246 383.7595442 16.40870594 383.75932277 15.47537861 383.75909463 C0.79411822 383.75514589 -13.88709256 383.73768981 -28.56833378 383.7144061 C-43.63604506 383.69070206 -58.70373143 383.67823069 -73.77146167 383.67706418 C-82.23358689 383.6761469 -90.69564746 383.67038135 -99.1577549 383.65224457 C-106.36290966 383.63685637 -113.56797979 383.63171553 -120.77314786 383.63998267 C-124.44983459 383.6438937 -128.12635083 383.64293767 -131.80301666 383.62892532 C-135.78796659 383.61387683 -139.77267563 383.62203953 -143.75764465 383.63250732 C-144.92096953 383.62445092 -146.0842944 383.61639452 -147.28287154 383.60809398 C-152.88573464 383.64263123 -157.23273418 383.67560375 -162 387 Z " fill="#000000" transform="translate(196,80)"/>
<path d="M0 0 C0.90471542 -0.00671722 1.80943085 -0.01343445 2.74156189 -0.02035522 C5.72774778 -0.03932819 8.71370879 -0.04325918 11.69995117 -0.04541016 C13.78114412 -0.05183893 15.86233617 -0.05856735 17.94352722 -0.06558228 C22.30547175 -0.07755354 26.66733708 -0.08126328 31.02929688 -0.08007812 C36.60780665 -0.07987503 42.18580645 -0.10716837 47.76419544 -0.14162254 C52.06314915 -0.16390444 56.36198042 -0.16791525 60.66098595 -0.16685867 C62.71700484 -0.16921302 64.77302719 -0.17802712 66.82898903 -0.19352341 C69.71057033 -0.21320773 72.59105578 -0.20733545 75.47265625 -0.1953125 C76.73618423 -0.21217102 76.73618423 -0.21217102 78.02523804 -0.22937012 C84.82620696 -0.15757821 90.03077487 1.74954919 95.17260742 6.25537109 C95.71143555 6.90634766 96.25026367 7.55732422 96.80541992 8.22802734 C97.3597168 8.87642578 97.91401367 9.52482422 98.48510742 10.19287109 C101.40686173 14.43336315 102.18126415 18.12259722 102.19784546 23.22883606 C102.21064041 25.01401894 102.21064041 25.01401894 102.22369385 26.83526611 C102.22233429 28.78115631 102.22233429 28.78115631 102.22094727 30.76635742 C102.2269349 32.15311545 102.23374099 33.53987015 102.24130249 34.92662048 C102.25894704 38.68709009 102.26365724 42.44746863 102.26493406 46.20797563 C102.26635723 48.55974346 102.27062999 50.91148825 102.2759285 53.26325035 C102.29442448 61.47458741 102.30259975 69.6858596 102.30102539 77.8972168 C102.29982448 85.54022094 102.32091787 93.18294246 102.35251272 100.8258751 C102.37870369 107.39676067 102.38939149 113.96755409 102.38811457 120.53849143 C102.38760571 124.45899279 102.39324626 128.37924298 102.41447067 132.29969215 C102.43390059 135.98932797 102.43394559 139.67847427 102.41943741 143.36812782 C102.41636475 145.35851042 102.43299293 147.34889331 102.45031738 149.33920288 C102.39275209 157.56388708 101.53924527 163.17230518 95.96557617 169.53271484 C95.31459961 170.07154297 94.66362305 170.61037109 93.99291992 171.16552734 C93.02032227 171.99697266 93.02032227 171.99697266 92.02807617 172.84521484 C86.76651853 176.47049665 82.04473609 176.58766094 75.86083984 176.58105469 C74.95612442 176.58777191 74.051409 176.59448914 73.11927795 176.60140991 C70.13309207 176.62038287 67.14713106 176.62431387 64.16088867 176.62646484 C62.07969572 176.63289361 59.99850368 176.63962203 57.91731262 176.64663696 C53.5553681 176.65860823 49.19350276 176.66231797 44.83154297 176.66113281 C39.2530332 176.66092972 33.6750334 176.68822306 28.0966444 176.72267723 C23.7976907 176.74495913 19.49885943 176.74896994 15.1998539 176.74791336 C13.14383501 176.7502677 11.08781266 176.7590818 9.03185081 176.77457809 C6.15026951 176.79426241 3.26978406 176.78839013 0.38818359 176.77636719 C-0.4541684 176.7876062 -1.29652039 176.79884521 -2.16439819 176.8104248 C-8.96536712 176.7386329 -14.16993503 174.8315055 -19.31176758 170.32568359 C-20.12000977 169.34921875 -20.12000977 169.34921875 -20.94458008 168.35302734 C-21.49887695 167.70462891 -22.05317383 167.05623047 -22.62426758 166.38818359 C-25.54602188 162.14769154 -26.3204243 158.45845747 -26.33700562 153.35221863 C-26.34553558 152.16209671 -26.35406555 150.97197479 -26.362854 149.74578857 C-26.36194763 148.44852844 -26.36104126 147.15126831 -26.36010742 145.81469727 C-26.36609505 144.42793924 -26.37290114 143.04118454 -26.38046265 141.6544342 C-26.39810719 137.8939646 -26.4028174 134.13358606 -26.40409422 130.37307906 C-26.40551739 128.02131123 -26.40979015 125.66956644 -26.41508865 123.31780434 C-26.43358464 115.10646728 -26.44175991 106.89519509 -26.44018555 98.68383789 C-26.43898464 91.04083375 -26.46007802 83.39811223 -26.49167287 75.75517958 C-26.51786385 69.18429402 -26.52855165 62.61350059 -26.52727473 56.04256326 C-26.52676587 52.12206189 -26.53240641 48.20181171 -26.55363083 44.28136253 C-26.57306075 40.59172671 -26.57310574 36.90258042 -26.55859756 33.21292686 C-26.5555249 31.22254427 -26.57215309 29.23216138 -26.58947754 27.24185181 C-26.53191225 19.01716761 -25.67840542 13.40874951 -20.10473633 7.04833984 C-19.45375977 6.50951172 -18.8027832 5.97068359 -18.13208008 5.41552734 C-17.48368164 4.86123047 -16.8352832 4.30693359 -16.16723633 3.73583984 C-10.90567868 0.11055804 -6.18389625 -0.00660626 0 0 Z M-8.06958008 19.29052734 C-10.5642458 23.31085478 -10.34186711 27.60374629 -10.29663086 32.2019043 C-10.29687193 32.99548182 -10.297113 33.78905935 -10.29736137 34.60668468 C-10.29587388 37.16417513 -10.28066713 39.72137059 -10.26489258 42.27880859 C-10.26195039 43.86226257 -10.25991103 45.44571849 -10.25878906 47.0291748 C-10.24832207 52.8871554 -10.22039954 58.7450943 -10.19458008 64.60302734 C-10.15333008 77.69990234 -10.11208008 90.79677734 -10.06958008 104.29052734 C21.61041992 104.29052734 53.29041992 104.29052734 85.93041992 104.29052734 C85.99229492 91.21427734 86.05416992 78.13802734 86.11791992 64.66552734 C86.14523193 60.54358887 86.17254395 56.42165039 86.20068359 52.17480469 C86.2107197 48.46529001 86.2107197 48.46529001 86.2167511 44.75576782 C86.22134416 43.10934006 86.23186706 41.46292211 86.24714661 39.81655884 C86.26918449 37.31600536 86.27213537 34.81606609 86.27099609 32.31542969 C86.28718758 31.22360917 86.28718758 31.22360917 86.30370617 30.10973167 C86.27535199 25.44414706 85.57426462 22.16274893 82.93041992 18.29052734 C78.93736409 15.82489233 74.68046615 16.00017178 70.11425781 16.01586914 C68.95719078 16.00820274 68.95719078 16.00820274 67.77674866 16.00038147 C65.23544483 15.98651993 62.69441324 15.98743958 60.15307617 15.98974609 C58.38097534 15.98585737 56.60887544 15.98152233 54.83677673 15.97676086 C51.12552873 15.96930613 47.41437587 15.96958459 43.703125 15.97485352 C38.95401906 15.98064821 34.20530311 15.96371361 29.45626163 15.94050884 C25.79733514 15.92575696 22.13850228 15.92490176 18.47955132 15.92801857 C16.72890894 15.92750612 14.97826123 15.9222828 13.22764778 15.91220665 C10.77683491 15.89983072 8.32677789 15.90664038 5.87597656 15.91821289 C4.79802826 15.90674728 4.79802826 15.90674728 3.69830322 15.89505005 C-0.94190863 15.94332963 -4.21584698 16.66717888 -8.06958008 19.29052734 Z M-10.06958008 120.29052734 C-12.45471925 148.63828298 -12.45471925 148.63828298 -7.06958008 158.29052734 C-3.07652425 160.75616236 1.1803737 160.5808829 5.74658203 160.56518555 C6.51796005 160.57029648 7.28933807 160.57540741 8.08409119 160.58067322 C10.62539502 160.59453476 13.16642661 160.59361511 15.70776367 160.59130859 C17.4798645 160.59519732 19.25196441 160.59953235 21.02406311 160.60429382 C24.73531111 160.61174856 28.44646397 160.6114701 32.15771484 160.60620117 C36.90682079 160.60040648 41.65553673 160.61734108 46.40457821 160.64054585 C50.0635047 160.65529773 53.72233757 160.65615292 57.38128853 160.65303612 C59.1319309 160.65354856 60.88257861 160.65877189 62.63319206 160.66884804 C65.08400493 160.68122396 67.53406196 160.6744143 69.98486328 160.6628418 C70.70349548 160.67048553 71.42212769 160.67812927 72.16253662 160.68600464 C76.80274847 160.63772506 80.07668682 159.91387581 83.93041992 157.29052734 C88.51759177 145.82259772 85.93041992 132.64186555 85.93041992 120.29052734 C54.25041992 120.29052734 22.57041992 120.29052734 -10.06958008 120.29052734 Z " fill="#000000" transform="translate(394.069580078125,255.70947265625)"/>
<path d="M0 0 C0.68368652 0.20898926 1.36737305 0.41797852 2.07177734 0.63330078 C20.02904772 6.30200637 36.92348534 16.38392042 50 30 C48.46356148 33.68069887 46.21849055 35.98775204 43.375 38.75 C42.14910156 39.94882813 42.14910156 39.94882813 40.8984375 41.171875 C40.27195312 41.77515625 39.64546875 42.3784375 39 43 C38.55011719 42.6596875 38.10023438 42.319375 37.63671875 41.96875 C36.2453141 40.92031684 34.85038508 39.87655427 33.453125 38.8359375 C31.80766012 37.604459 30.17226032 36.35942439 28.546875 35.1015625 C13.91714752 24.01976294 -2.63462937 16.21998986 -21 14 C-22.1034375 13.8659375 -23.206875 13.731875 -24.34375 13.59375 C-51.32834812 11.0567365 -77.1712334 19.10893249 -99 35 C-102.09823585 37.56827446 -105.08354771 40.22757005 -108 43 C-112.18423892 39.49102731 -116.19588166 35.91939465 -120 32 C-114.12134115 18.45222784 -93.65343938 9.11348504 -80.71875 3.7578125 C-55.9030812 -5.88228106 -25.56973795 -8.0001218 0 0 Z " fill="#000000" transform="translate(387,20)"/>
<path d="M0 0 C3.47175735 2.67428438 6.75023238 5.55174033 9.97265625 8.51953125 C6.03071455 13.4000305 1.8531555 17.57758955 -3.02734375 21.51953125 C-3.56101562 21.01164062 -4.0946875 20.50375 -4.64453125 19.98046875 C-21.50843857 4.40031908 -39.83368088 0.64867844 -62.14208984 1.34033203 C-76.45754032 2.2294453 -89.22780396 9.52717251 -100.02734375 18.51953125 C-101.34734375 19.50953125 -102.66734375 20.49953125 -104.02734375 21.51953125 C-107.98734375 17.55953125 -111.94734375 13.59953125 -116.02734375 9.51953125 C-88.42400627 -24.9846406 -33.63376791 -23.52419605 0 0 Z " fill="#000000" transform="translate(405.02734375,64.48046875)"/>
<path d="M0 0 C5.82485779 3.51996782 10.54466582 8.98962934 12.5625 15.5 C13.36764105 23.33608208 13.68710392 31.11922577 8.5625 37.5 C3.75801361 42.54521222 -0.59927055 46.10562995 -7.70703125 46.8359375 C-16.22326573 46.92983204 -22.11345494 46.6177288 -28.40234375 40.62890625 C-34.7841668 33.72505269 -35.91792252 28.29832071 -35.7421875 18.9453125 C-35.04689797 11.08319245 -31.38995981 6.95041296 -25.53515625 1.9453125 C-18.47077988 -2.92213491 -7.84396301 -3.47595223 0 0 Z M-16.8125 17.125 C-18.92456506 20.21186432 -19.04945145 21.8282913 -18.4375 25.5 C-16.9375 28 -16.9375 28 -14.4375 29.5 C-10.7657913 30.11195145 -9.14936432 29.98706506 -6.0625 27.875 C-3.95043494 24.78813568 -3.82554855 23.1717087 -4.4375 19.5 C-5.9375 17 -5.9375 17 -8.4375 15.5 C-12.1092087 14.88804855 -13.72563568 15.01293494 -16.8125 17.125 Z " fill="#000000" transform="translate(363.4375,113.5)"/>
<path d="M0 0 C2.42101635 1.65500537 4.71919999 3.3783751 7.00390625 5.21484375 C8.33476162 6.2181392 9.6673215 7.21919371 11.00390625 8.21484375 C9.46746773 11.89554262 7.2223968 14.20259579 4.37890625 16.96484375 C3.56164062 17.7640625 2.744375 18.56328125 1.90234375 19.38671875 C1.27585937 19.99 0.649375 20.59328125 0.00390625 21.21484375 C-3.94841673 19.32499736 -7.57305187 17.00056196 -11.265625 14.65234375 C-20.00295742 10.05243198 -30.65994589 9.85489006 -40.19921875 11.90234375 C-46.2799724 13.9405852 -51.14900449 17.04829138 -55.99609375 21.21484375 C-59.62671042 19.6826569 -61.98247105 17.49652935 -64.74609375 14.71484375 C-65.5453125 13.92078125 -66.34453125 13.12671875 -67.16796875 12.30859375 C-68.99609375 10.21484375 -68.99609375 10.21484375 -68.99609375 8.21484375 C-50.1316869 -8.31431737 -22.06161824 -13.14492769 0 0 Z " fill="#000000" transform="translate(380.99609375,86.78515625)"/>
<path d="M0 0 C3.2508878 -0.10796306 6.49819179 -0.18729295 9.75 -0.25 C10.67039062 -0.28351563 11.59078125 -0.31703125 12.5390625 -0.3515625 C16.39621728 -0.40746329 19.1729302 -0.43322704 22.625 1.375 C24.81402553 5.55404874 24.41874663 9.61595785 24.25 14.25 C24.23195313 15.18585938 24.21390625 16.12171875 24.1953125 17.0859375 C24.14826909 19.39106438 24.07652778 21.69566354 24 24 C18.72 24 13.44 24 8 24 C8 21.36 8 18.72 8 16 C5.36 16 2.72 16 0 16 C0 10.72 0 5.44 0 0 Z " fill="#000000" transform="translate(448,280)"/>
<path d="M0 0 C5.28 0 10.56 0 16 0 C16 5.28 16 10.56 16 16 C10.72 16 5.44 16 0 16 C0 10.72 0 5.44 0 0 Z " fill="#000000" transform="translate(424,392)"/>
<path d="M0 0 C5.28 0 10.56 0 16 0 C16 5.28 16 10.56 16 16 C10.72 16 5.44 16 0 16 C0 10.72 0 5.44 0 0 Z " fill="#000000" transform="translate(200,376)"/>
<path d="M0 0 C5.28 0 10.56 0 16 0 C16 5.28 16 10.56 16 16 C10.72 16 5.44 16 0 16 C0 10.72 0 5.44 0 0 Z " fill="#000000" transform="translate(424,224)"/>
<path d="M0 0 C5.28 0 10.56 0 16 0 C16 5.28 16 10.56 16 16 C10.72 16 5.44 16 0 16 C0 10.72 0 5.44 0 0 Z " fill="#000000" transform="translate(424,192)"/>
<path d="M0 0 C5.28 0 10.56 0 16 0 C16 5.28 16 10.56 16 16 C10.72 16 5.44 16 0 16 C0 10.72 0 5.44 0 0 Z " fill="#000000" transform="translate(424,160)"/>
<path d="M0 0 C5.28 0 10.56 0 16 0 C16 5.28 16 10.56 16 16 C10.72 16 5.44 16 0 16 C0 10.72 0 5.44 0 0 Z " fill="#000000" transform="translate(424,128)"/>
<path d="M0 0 C5.28 0 10.56 0 16 0 C16 5.28 16 10.56 16 16 C10.72 16 5.44 16 0 16 C0 10.72 0 5.44 0 0 Z " fill="#000000" transform="translate(392,128)"/>
</svg>
